<svg width="18" height="20" viewBox="0 0 18 20" fill="none" xmlns="http://www.w3.org/2000/svg">
<path d="M0.497421 9.63111C0.497421 9.63111 -0.131468 8.71444 0.785754 8.08611C1.70187 7.45777 2.3302 8.37388 2.3302 8.37388L5.24742 12.6283C5.34798 12.4606 5.45798 12.295 5.58075 12.1317L1.53187 6.22777C1.53187 6.22777 0.903532 5.31166 1.8202 4.68333C2.73631 4.05499 3.36464 4.97111 3.36464 4.97111L7.17298 10.525C7.31464 10.4094 7.45964 10.2933 7.60909 10.1794L3.19409 3.73999C3.19409 3.73999 2.56575 2.82388 3.48242 2.19555C4.39853 1.56722 5.02687 2.48333 5.02687 2.48333L9.44187 8.92166C9.60409 8.82222 9.76464 8.7361 9.92576 8.64499L5.79909 2.62722C5.79909 2.62722 5.17075 1.7111 6.08687 1.08277C7.00298 0.454438 7.63131 1.37055 7.63131 1.37055L11.9946 7.73388L12.658 8.70166C9.90909 10.5872 9.64742 14.1344 11.218 16.425C11.5319 16.8833 11.9902 16.5694 11.9902 16.5694C10.1052 13.82 10.6808 10.7305 13.4302 8.84555L12.6196 4.78888C12.6196 4.78888 12.3169 3.71999 13.3852 3.41666C14.4541 3.11388 14.7574 4.18277 14.7574 4.18277L15.6935 6.96277C16.0646 8.06499 16.4596 9.16333 16.9824 10.2022C18.4585 13.1356 17.5769 16.7811 14.7935 18.6906C11.7574 20.7722 7.60687 19.9983 5.52464 16.9628L0.497421 9.63111Z" fill="#FFDC5D"/>
</svg>
