<svg width="20" height="20" viewBox="0 0 20 20" fill="none" xmlns="http://www.w3.org/2000/svg">
<g clip-path="url(#clip0_17_4178)">
<path d="M18.934 8.10161L3.0277 0.404589C1.97995 -0.103229 0.718946 0.334467 0.211086 1.38222C-0.047867 1.91647 -0.0695253 2.53514 0.151423 3.08623L2.63629 9.29624H20C19.8172 8.77236 19.4337 8.34262 18.934 8.10161Z" fill="url(#paint0_linear_17_4178)"/>
<path d="M2.6369 10.7017L0.152041 16.9131C-0.279149 17.9975 0.25041 19.2262 1.33485 19.6575C1.58038 19.7551 1.84209 19.8058 2.10632 19.807C2.42559 19.807 2.74075 19.7349 3.02828 19.5961L18.9346 11.8963C19.4343 11.6553 19.8178 11.2255 20.0006 10.7017H2.6369Z" fill="url(#paint1_linear_17_4178)"/>
</g>
<defs>
<linearGradient id="paint0_linear_17_4178" x1="-1.11759e-07" y1="4.74463" x2="20" y2="4.74463" gradientUnits="userSpaceOnUse">
<stop stop-color="#EE0979"/>
<stop offset="1" stop-color="#FF6A00"/>
</linearGradient>
<linearGradient id="paint1_linear_17_4178" x1="0.00195301" y1="15.2543" x2="20.0006" y2="15.2543" gradientUnits="userSpaceOnUse">
<stop stop-color="#EE0979"/>
<stop offset="1" stop-color="#FF6A00"/>
</linearGradient>
<clipPath id="clip0_17_4178">
<rect width="20" height="20" fill="white"/>
</clipPath>
</defs>
</svg>
